<?xml version="1.0" encoding="utf-8"?>
<!-- Generated by IcoMoon.io -->
<!DOCTYPE svg PUBLIC "-//W3C//DTD SVG 1.1//EN" "http://www.w3.org/Graphics/SVG/1.1/DTD/svg11.dtd">
<svg version="1.1" xmlns="http://www.w3.org/2000/svg" xmlns:xlink="http://www.w3.org/1999/xlink" width="512" height="512" viewBox="0 0 512 512">
<g id="icomoon-ignore">
</g>
<path d="M192.003 463.997c0 26.512-21.494 48-48 48s-47.999-21.495-47.999-48c0-26.512 21.495-48 47.999-48s48 21.495 48 48z"></path>
<path d="M511.989 463.997c0 26.512-21.495 48-48 48s-48-21.495-48-48c0-26.512 21.495-48 48-48s48 21.495 48 48z"></path>
<path d="M511.989 256v-191.992h-383.983c0-17.674-14.328-32.002-32.002-32.002h-95.999v32.002h63.997l24.034 206.019c-14.642 11.728-24.034 29.756-24.034 49.969 0 35.344 28.654 63.997 63.997 63.997h383.983v-32.002h-383.983c-17.674 0-32.002-14.327-32.002-32.002 0-0.113 0.007-0.224 0.015-0.329l415.979-63.675z"></path>
</svg>
